<svg xmlns="http://www.w3.org/2000/svg" xmlns:xlink="http://www.w3.org/1999/xlink" width="99.021" height="34.743" viewBox="0 0 99.021 34.743">
  <defs>
    <clipPath id="clip-path">
      <rect id="Retângulo_4" data-name="Retângulo 4" width="99.021" height="34.743" fill="none"/>
    </clipPath>
  </defs>
  <g id="Grupo_46" data-name="Grupo 46" transform="translate(0 -4)">
    <g id="Grupo_6" data-name="Grupo 6" transform="translate(0 4)" clip-path="url(#clip-path)">
      <path id="Caminho_15" data-name="Caminho 15" d="M11.3,25.094a10.626,10.626,0,0,1-5.783-1.611,11.445,11.445,0,0,1-4.039-4.371A13.006,13.006,0,0,1,0,12.866,12.27,12.27,0,0,1,1.611,6.6,11.919,11.919,0,0,1,5.982,2.2a12.072,12.072,0,0,1,6.2-1.611,11.878,11.878,0,0,1,10.529,6,12.277,12.277,0,0,1,1.611,6.269H22.6a13.013,13.013,0,0,1-1.479,6.247,11.457,11.457,0,0,1-4.039,4.371A10.629,10.629,0,0,1,11.3,25.094m.883-3.973A7.531,7.531,0,0,0,16.2,20.039a7.691,7.691,0,0,0,2.781-2.958A8.715,8.715,0,0,0,20,12.866a8.811,8.811,0,0,0-1.015-4.26A7.7,7.7,0,0,0,16.2,5.648a7.538,7.538,0,0,0-4.017-1.082,7.569,7.569,0,0,0-4,1.082A7.8,7.8,0,0,0,5.364,8.606a8.655,8.655,0,0,0-1.037,4.26,8.561,8.561,0,0,0,1.037,4.216,7.791,7.791,0,0,0,2.825,2.958,7.562,7.562,0,0,0,4,1.082m9.889,3.841a2.189,2.189,0,0,1-2.251-2.252V15.956l.839-4.68,3.664,1.589V22.71a2.189,2.189,0,0,1-2.251,2.252" transform="translate(0 -0.505)" fill="#fff"/>
      <path id="Caminho_16" data-name="Caminho 16" d="M190.073,24.413a2.259,2.259,0,0,1-1.633-.552,2.194,2.194,0,0,1-.574-1.656V2.472A2.209,2.209,0,0,1,188.44.839a2.21,2.21,0,0,1,1.633-.574,2.252,2.252,0,0,1,1.656.552,2.252,2.252,0,0,1,.552,1.656V22.206a2.264,2.264,0,0,1-.552,1.634,2.2,2.2,0,0,1-1.656.574m-.044-15.1a8.808,8.808,0,0,1,1.3-4.746,9.545,9.545,0,0,1,3.51-3.333A9.772,9.772,0,0,1,199.7,0a7.255,7.255,0,0,1,3.951.861,1.821,1.821,0,0,1,.993,2.053,1.7,1.7,0,0,1-.508.949,1.752,1.752,0,0,1-.861.419,2.6,2.6,0,0,1-1.06-.044,12.389,12.389,0,0,0-5.077-.088,6.877,6.877,0,0,0-3.554,1.81,4.588,4.588,0,0,0-1.3,3.355Z" transform="translate(-159.922)" fill="#fff"/>
      <path id="Caminho_17" data-name="Caminho 17" d="M325.136,35.247a2.241,2.241,0,0,1-1.656-.64,2.185,2.185,0,0,1-.64-1.611V21.076a10.862,10.862,0,0,1-8.52,4.017,10.624,10.624,0,0,1-5.783-1.611,11.445,11.445,0,0,1-4.039-4.371,13,13,0,0,1-1.479-6.247A12.272,12.272,0,0,1,304.63,6.6,11.922,11.922,0,0,1,309,2.2,12.17,12.17,0,0,1,325.732,6.6a12.277,12.277,0,0,1,1.611,6.269V33a2.228,2.228,0,0,1-.618,1.611,2.115,2.115,0,0,1-1.589.64M315.2,21.12a7.533,7.533,0,0,0,4.017-1.082A7.692,7.692,0,0,0,322,17.081a8.714,8.714,0,0,0,1.015-4.216A8.809,8.809,0,0,0,322,8.6a7.7,7.7,0,0,0-2.781-2.958,7.96,7.96,0,0,0-8.012,0A7.8,7.8,0,0,0,308.383,8.6a8.653,8.653,0,0,0-1.038,4.26,8.56,8.56,0,0,0,1.038,4.216,7.79,7.79,0,0,0,2.825,2.958,7.563,7.563,0,0,0,4,1.082" transform="translate(-257.946 -0.504)" fill="#fff"/>
      <path id="Caminho_18" data-name="Caminho 18" d="M499.12,33.805a4.142,4.142,0,0,1,.982,3.015v5.335h-.322V36.786a3.959,3.959,0,0,0-.847-2.735,2.966,2.966,0,0,0-2.321-.94,3.138,3.138,0,0,0-2.49,1.093,4.71,4.71,0,0,0-.948,3.176v4.777h-.322V36.786a3.959,3.959,0,0,0-.847-2.735,2.966,2.966,0,0,0-2.321-.94,3.131,3.131,0,0,0-2.5,1.093,4.739,4.739,0,0,0-.94,3.176v4.777h-.339V33.009h.339v2.422a3.315,3.315,0,0,1,1.262-1.973,3.675,3.675,0,0,1,2.176-.652,3.489,3.489,0,0,1,2.211.72,3.366,3.366,0,0,1,1.177,2.177,3.5,3.5,0,0,1,1.262-2.177,3.683,3.683,0,0,1,2.278-.72,3.364,3.364,0,0,1,2.507,1" transform="translate(-413.632 -27.926)" fill="#fff"/>
      <path id="Caminho_19" data-name="Caminho 19" d="M597.831,35.569a3.91,3.91,0,0,1,1.575-1.626,4.678,4.678,0,0,1,2.32-.567,4.312,4.312,0,0,1,2.668.821,3.955,3.955,0,0,1,1.465,2.092V33.495h.322v9.146h-.322V39.846a3.954,3.954,0,0,1-1.465,2.092,4.31,4.31,0,0,1-2.668.822,4.676,4.676,0,0,1-2.32-.567,3.907,3.907,0,0,1-1.575-1.626,5.862,5.862,0,0,1,0-5m7.495.2a3.875,3.875,0,0,0-1.474-1.541,4.13,4.13,0,0,0-2.126-.551,4.33,4.33,0,0,0-2.176.525,3.574,3.574,0,0,0-1.431,1.516,5.669,5.669,0,0,0,0,4.692,3.571,3.571,0,0,0,1.431,1.516,4.327,4.327,0,0,0,2.176.525,4.127,4.127,0,0,0,2.126-.551,3.875,3.875,0,0,0,1.474-1.541,5.2,5.2,0,0,0,0-4.59" transform="translate(-508.431 -28.411)" fill="#fff"/>
      <path id="Caminho_20" data-name="Caminho 20" d="M480.336,107.2v6.4a3.384,3.384,0,0,0,.186,1.27,1.119,1.119,0,0,0,.593.618,2.909,2.909,0,0,0,1.135.178h.965v.339h-1a2.271,2.271,0,0,1-1.7-.542A2.673,2.673,0,0,1,480,113.6v-6.4h-1.491v-.339H480v-2.337h.339v2.337h2.879v.339Z" transform="translate(-407.331 -88.978)" fill="#fff"/>
      <path id="Caminho_21" data-name="Caminho 21" d="M522.117,121.629A3.923,3.923,0,0,1,523.684,120a4.569,4.569,0,0,1,2.27-.559,4.422,4.422,0,0,1,2.854.889,3.641,3.641,0,0,1,1.347,2.329h-.339a3.187,3.187,0,0,0-1.27-2.134,4.23,4.23,0,0,0-2.591-.779,4.3,4.3,0,0,0-2.024.483,3.626,3.626,0,0,0-1.482,1.465,5.6,5.6,0,0,0,0,4.878,3.624,3.624,0,0,0,1.482,1.465,4.3,4.3,0,0,0,2.024.483,4.228,4.228,0,0,0,2.591-.779,3.186,3.186,0,0,0,1.27-2.134h.339a3.641,3.641,0,0,1-1.347,2.329,4.422,4.422,0,0,1-2.854.889,4.568,4.568,0,0,1-2.27-.559,3.922,3.922,0,0,1-1.567-1.626,5.822,5.822,0,0,1,0-5.014" transform="translate(-443.972 -101.677)" fill="#fff"/>
      <path id="Caminho_22" data-name="Caminho 22" d="M602.478,101.65a4.016,4.016,0,0,1,1.033,3.015V110h-.322v-5.369a3.813,3.813,0,0,0-.9-2.736,3.236,3.236,0,0,0-2.456-.94,3.39,3.39,0,0,0-2.608,1.059,4.443,4.443,0,0,0-.982,3.125V110h-.339V97.466h.339v5.793a3.224,3.224,0,0,1,1.287-1.939,3.943,3.943,0,0,1,2.3-.669,3.644,3.644,0,0,1,2.642,1" transform="translate(-507.268 -82.968)" fill="#fff"/>
      <path id="Caminho_23" data-name="Caminho 23" d="M659.915,176.6a.493.493,0,0,1,0-.661.45.45,0,0,1,.627,0,.493.493,0,0,1,0,.661.45.45,0,0,1-.627,0" transform="translate(-561.648 -149.658)" fill="#fff"/>
    </g>
  </g>
</svg>
