<svg id="instagram" xmlns="http://www.w3.org/2000/svg" width="23.262" height="24" viewBox="0 0 23.262 24">
  <path id="Caminho_30" data-name="Caminho 30" d="M11.631,2.162c3.106,0,3.474.012,4.7.07a5.038,5.038,0,0,1,3.5,1.311A5.36,5.36,0,0,1,21.1,7.151c.056,1.265.068,1.645.068,4.849s-.012,3.584-.068,4.849a5.422,5.422,0,0,1-1.271,3.608,5,5,0,0,1-3.5,1.311c-1.226.058-1.594.07-4.7.07s-3.474-.012-4.7-.07a5.1,5.1,0,0,1-3.5-1.311,5.39,5.39,0,0,1-1.271-3.608C2.107,15.584,2.1,15.2,2.1,12s.012-3.584.068-4.849A5.44,5.44,0,0,1,3.434,3.543a5.016,5.016,0,0,1,3.5-1.311c1.226-.058,1.594-.07,4.7-.07m0-2.162c-3.159,0-3.555.014-4.8.072A7.066,7.066,0,0,0,1.952,2.014,7.537,7.537,0,0,0,.07,7.052C.014,8.332,0,8.741,0,12s.014,3.668.07,4.948a7.557,7.557,0,0,0,1.882,5.038,7.06,7.06,0,0,0,4.883,1.942c1.241.058,1.637.072,4.8.072s3.555-.014,4.8-.072a7.071,7.071,0,0,0,4.883-1.942,7.534,7.534,0,0,0,1.882-5.038c.056-1.28.07-1.689.07-4.948s-.014-3.668-.07-4.948A7.553,7.553,0,0,0,21.31,2.014,7.067,7.067,0,0,0,16.427.072C15.186.014,14.79,0,11.631,0Z" transform="translate(0)" fill="#fff"/>
  <path id="Caminho_31" data-name="Caminho 31" d="M11.811,5.838A6.07,6.07,0,0,0,5.838,12a6.07,6.07,0,0,0,5.973,6.162A6.07,6.07,0,0,0,17.783,12,6.07,6.07,0,0,0,11.811,5.838Zm0,10.162a3.94,3.94,0,0,1-3.877-4,3.94,3.94,0,0,1,3.877-4,3.94,3.94,0,0,1,3.877,4A3.94,3.94,0,0,1,11.811,16Z" transform="translate(-0.179)" fill="#fff"/>
  <ellipse id="Elipse_1" data-name="Elipse 1" cx="1.396" cy="1.44" rx="1.396" ry="1.44" transform="translate(16.445 4.154)" fill="#fff"/>
</svg>
