<svg id="local_grocery_store_black_24dp" xmlns="http://www.w3.org/2000/svg" width="28.714" height="28.714" viewBox="0 0 28.714 28.714">
  <path id="Caminho_36" data-name="Caminho 36" d="M0,0H28.714V28.714H0Z" fill="none"/>
  <path id="Caminho_37" data-name="Caminho 37" d="M8.179,21.143a2.393,2.393,0,1,0,2.393,2.393A2.39,2.39,0,0,0,8.179,21.143ZM2.2,4.393h1.2L7.7,13.474,6.085,16.393a2.4,2.4,0,0,0,2.094,3.553H21.339a1.2,1.2,0,0,0,0-2.393H8.179l1.316-2.393h8.913A2.381,2.381,0,0,0,20.5,13.928l4.283-7.765a1.192,1.192,0,0,0-1.041-1.771H6.037l-.8-1.711A1.188,1.188,0,0,0,4.159,2H2.2a1.2,1.2,0,0,0,0,2.393Zm17.946,16.75a2.393,2.393,0,1,0,2.393,2.393A2.39,2.39,0,0,0,20.143,21.143Z" transform="translate(0.196 0.393)" fill="#785631"/>
</svg>
