<svg width="136" height="48" viewBox="0 0 136 48" fill="none" xmlns="http://www.w3.org/2000/svg">
<path d="M15.522 33.7733C12.57 33.7733 9.92237 33.0358 7.57916 31.5608C5.23391 30.0858 3.38509 28.0858 2.03064 25.5588C0.676201 23.0337 0 20.1737 0 16.9786C0 13.7835 0.737478 10.9152 2.21245 8.36979C3.68743 5.82229 5.68743 3.81207 8.2145 2.3371C10.7395 0.862125 13.5812 0.124634 16.7334 0.124634C19.8856 0.124634 22.715 0.862125 25.2216 2.3371C27.7283 3.81412 29.7181 5.82433 31.1931 8.36979C32.668 10.9152 33.4055 13.7876 33.4055 16.9786H31.0419C31.0419 20.1716 30.3636 23.0317 29.0112 25.5588C27.6568 28.0858 25.808 30.0858 23.4627 31.5608C21.1175 33.0358 18.4699 33.7733 15.5199 33.7733H15.522ZM16.7354 28.3167C18.7967 28.3167 20.6353 27.8223 22.2533 26.8315C23.8693 25.8407 25.142 24.4883 26.0735 22.7702C27.0031 21.0521 27.4688 19.1236 27.4688 16.9806C27.4688 14.8376 27.0031 12.8478 26.0735 11.1297C25.144 9.41166 23.8693 8.05927 22.2533 7.06846C20.6353 6.07765 18.7967 5.58327 16.7354 5.58327C14.6742 5.58327 12.8846 6.07765 11.2482 7.06846C9.61185 8.05927 8.31665 9.41371 7.36875 11.1297C6.4188 12.8478 5.94484 14.7988 5.94484 16.9806C5.94484 19.1624 6.4188 21.0542 7.36875 22.7702C8.31869 24.4883 9.61185 25.8427 11.2482 26.8315C12.8846 27.8223 14.713 28.3167 16.7354 28.3167ZM30.3166 33.5914C29.428 33.5914 28.6885 33.2993 28.1042 32.713C27.5179 32.1267 27.2257 31.3892 27.2257 30.5005V21.2237L28.3779 14.7968L33.4096 16.9786V30.4985C33.4096 31.3872 33.1154 32.1267 32.5312 32.711C31.9448 33.2973 31.2074 33.5894 30.3187 33.5894L30.3166 33.5914Z" fill="#233325"/>
<path d="M41.4115 33.5301C40.4412 33.5301 39.6935 33.2789 39.1684 32.7722C38.6434 32.2676 38.3799 31.5097 38.3799 30.4985V3.3953C38.3799 2.42492 38.6414 1.67722 39.1684 1.15219C39.6935 0.627167 40.4412 0.363636 41.4115 0.363636C42.3819 0.363636 43.1787 0.616954 43.6853 1.12155C44.1899 1.62819 44.4432 2.38611 44.4432 3.3953V30.4985C44.4432 31.4688 44.1899 32.2166 43.6853 32.7416C43.1787 33.2666 42.4207 33.5301 41.4115 33.5301ZM41.3503 12.7947C41.3503 10.3698 41.9468 8.19612 43.1398 6.27579C44.3309 4.35547 45.9386 2.82942 47.9611 1.69765C49.9815 0.565883 52.2062 0 54.6312 0C57.0561 0 58.864 0.394282 60.0571 1.18284C61.2481 1.9714 61.7037 2.91113 61.4218 4.00204C61.3012 4.56793 61.0683 5.00307 60.7251 5.30542C60.3819 5.60776 59.9876 5.80184 59.5423 5.88151C59.0969 5.96323 58.6128 5.9428 58.0877 5.82022C55.4994 5.2952 53.1766 5.25434 51.1153 5.69969C49.054 6.14505 47.4259 6.97242 46.2348 8.18591C45.0418 9.39939 44.4453 10.9357 44.4453 12.7947H41.3523H41.3503Z" fill="#233325"/>
<path d="M92.2821 47.7181C91.3526 47.7181 90.5947 47.4239 90.0084 46.8396C89.4221 46.2533 89.13 45.5158 89.13 44.6272V28.2574C87.7551 29.9551 86.0574 31.2993 84.037 32.2901C82.0145 33.2809 79.8123 33.7753 77.4282 33.7753C74.4762 33.7753 71.8286 33.0378 69.4854 31.5628C67.1402 30.0878 65.2913 28.0878 63.9369 25.5608C62.5825 23.0357 61.9062 20.1757 61.9062 16.9806C61.9062 13.7855 62.6437 10.9172 64.1187 8.37179C65.5937 5.8243 67.5937 3.81408 70.1208 2.33911C72.6458 0.864133 75.4875 0.126648 78.6397 0.126648C81.7919 0.126648 84.6213 0.864133 87.1279 2.33911C89.6346 3.81612 91.6243 5.82634 93.0993 8.37179C94.5743 10.9172 95.3118 13.7896 95.3118 16.9806V44.6292C95.3118 45.5179 95.0278 46.2554 94.464 46.8417C93.8981 47.428 93.1708 47.7201 92.2821 47.7201V47.7181ZM78.6397 28.3166C80.7009 28.3166 82.5395 27.8223 84.1575 26.8314C85.7735 25.8406 87.0462 24.4883 87.9778 22.7702C88.9073 21.0521 89.3731 19.1236 89.3731 16.9806C89.3731 14.8376 88.9073 12.8478 87.9778 11.1297C87.0482 9.41163 85.7735 8.05924 84.1575 7.06843C82.5395 6.07762 80.7009 5.58324 78.6397 5.58324C76.5784 5.58324 74.7888 6.07762 73.1524 7.06843C71.5161 8.05924 70.2209 9.41367 69.273 11.1297C68.323 12.8478 67.8491 14.7988 67.8491 16.9806C67.8491 19.1624 68.323 21.0541 69.273 22.7702C70.2229 24.4883 71.5161 25.8427 73.1524 26.8314C74.7888 27.8223 76.6172 28.3166 78.6397 28.3166Z" fill="#233325"/>
<path d="M117.412 8.07552C118.311 8.99074 118.76 10.3717 118.76 12.2165V19.5444H118.319V12.1695C118.319 10.527 117.931 9.27266 117.156 8.4126C116.38 7.55254 115.318 7.12148 113.969 7.12148C112.621 7.12148 111.418 7.62199 110.55 8.62097C109.681 9.62199 109.246 11.0745 109.246 12.9826V19.5423H108.805V12.1675C108.805 10.525 108.417 9.27062 107.642 8.41055C106.866 7.55049 105.804 7.11945 104.456 7.11945C103.028 7.11945 101.886 7.61996 101.023 8.61893C100.163 9.61996 99.7324 11.0725 99.7324 12.9805V19.5403H99.2666V6.97848H99.7324V10.3043C100.043 9.09493 100.619 8.19196 101.465 7.59339C102.311 6.99687 103.305 6.69861 104.454 6.69861C105.602 6.69861 106.644 7.02751 107.489 7.68737C108.335 8.34723 108.874 9.34212 109.105 10.6761C109.385 9.34212 109.961 8.34519 110.838 7.68737C111.714 7.02751 112.756 6.69861 113.967 6.69861C115.363 6.69861 116.511 7.15622 117.41 8.07144L117.412 8.07552Z" fill="#233325"/>
<path d="M122.784 9.83259C123.297 8.86426 124.018 8.11859 124.948 7.59969C125.877 7.0808 126.939 6.82135 128.135 6.82135C129.577 6.82135 130.799 7.19725 131.798 7.94904C132.799 8.70082 133.469 9.65894 133.81 10.8213V6.98274H134.251V19.5445H133.81V15.7059C133.469 16.8683 132.799 17.8265 131.798 18.5782C130.797 19.33 129.577 19.7059 128.135 19.7059C126.939 19.7059 125.877 19.4465 124.948 18.9276C124.016 18.4087 123.297 17.663 122.784 16.6947C122.274 15.7264 122.016 14.5823 122.016 13.2626C122.016 11.9429 122.271 10.8009 122.784 9.83055V9.83259ZM133.078 10.1125C132.59 9.20542 131.916 8.50061 131.054 7.99602C130.194 7.49142 129.219 7.24015 128.135 7.24015C126.986 7.24015 125.99 7.48121 125.146 7.96129C124.3 8.44137 123.646 9.13595 123.181 10.043C122.715 10.9501 122.482 12.0246 122.482 13.2647C122.482 14.5047 122.715 15.5793 123.181 16.4863C123.646 17.3934 124.3 18.088 125.146 18.568C125.992 19.0481 126.986 19.2892 128.135 19.2892C129.219 19.2892 130.194 19.0379 131.054 18.5333C131.914 18.0287 132.59 17.3239 133.078 16.4169C133.567 15.5098 133.812 14.4598 133.812 13.2647C133.812 12.0696 133.567 11.0195 133.078 10.1125Z" fill="#233325"/>
<path d="M100.268 25.0297V33.8224C100.268 34.5823 100.353 35.1645 100.523 35.567C100.692 35.9694 100.964 36.2534 101.338 36.4168C101.71 36.5803 102.229 36.662 102.897 36.662H104.223V37.1278H102.85C101.765 37.1278 100.985 36.8806 100.513 36.3841C100.039 35.8877 99.8038 35.0358 99.8038 33.8244V25.0317H97.7568V24.566H99.8038V21.3566H100.27V24.566H104.225V25.0317H100.27L100.268 25.0297Z" fill="#233325"/>
<path d="M107.328 27.4034C107.847 26.4269 108.564 25.6813 109.479 25.1705C110.394 24.6578 111.432 24.4024 112.596 24.4024C114.194 24.4024 115.499 24.8089 116.517 25.6241C117.532 26.4392 118.149 27.5056 118.365 28.8232H117.9C117.697 27.5832 117.117 26.6046 116.155 25.8917C115.193 25.1787 114.006 24.8212 112.596 24.8212C111.587 24.8212 110.662 25.0418 109.816 25.4851C108.97 25.9264 108.292 26.5985 107.781 27.4974C107.27 28.3963 107.013 29.5137 107.013 30.8478C107.013 32.1818 107.268 33.2992 107.781 34.1981C108.294 35.097 108.972 35.7691 109.816 36.2104C110.662 36.6516 111.587 36.8743 112.596 36.8743C114.008 36.8743 115.193 36.5168 116.155 35.8038C117.117 35.0909 117.697 34.1143 117.9 32.8723H118.365C118.149 34.1899 117.532 35.2563 116.517 36.0715C115.501 36.8866 114.194 37.2931 112.596 37.2931C111.434 37.2931 110.394 37.0377 109.479 36.525C108.564 36.0142 107.847 35.2686 107.328 34.2921C106.809 33.3156 106.549 32.1675 106.549 30.8498C106.549 29.5321 106.809 28.384 107.328 27.4075V27.4034Z" fill="#233325"/>
<path d="M130.764 25.6589C131.71 26.5741 132.184 27.9551 132.184 29.7998V37.1277H131.742V29.7529C131.742 28.1083 131.332 26.856 130.508 25.996C129.687 25.1359 128.562 24.7049 127.136 24.7049C125.71 24.7049 124.453 25.189 123.552 26.1594C122.654 27.1298 122.204 28.5598 122.204 30.4515V37.1277H121.738V19.9142H122.204V27.8693C122.498 26.7069 123.089 25.8182 123.971 25.2054C124.856 24.5925 125.91 24.2861 127.136 24.2861C128.609 24.2861 129.818 24.7437 130.764 25.6589V25.6589Z" fill="#233325"/>
<path d="M134.964 36.999C134.848 36.8826 134.791 36.7314 134.791 36.5455C134.791 36.3596 134.848 36.2084 134.964 36.092C135.081 35.9755 135.224 35.9183 135.395 35.9183C135.567 35.9183 135.71 35.9755 135.826 36.092C135.943 36.2084 136 36.3596 136 36.5455C136 36.7314 135.943 36.8826 135.826 36.999C135.71 37.1155 135.567 37.1727 135.395 37.1727C135.224 37.1727 135.081 37.1155 134.964 36.999Z" fill="#233325"/>
</svg>
