<svg id="star_black_48dp" xmlns="http://www.w3.org/2000/svg" width="36.714" height="36.714" viewBox="0 0 36.714 36.714">
  <g id="Grupo_87" data-name="Grupo 87">
    <path id="Caminho_38" data-name="Caminho 38" d="M0,0H36.714V36.714H0Z" fill="none"/>
    <path id="Caminho_39" data-name="Caminho 39" d="M0,0H36.714V36.714H0Z" fill="none"/>
  </g>
  <g id="Grupo_88" data-name="Grupo 88" transform="translate(5.267 5.465)">
    <path id="Caminho_40" data-name="Caminho 40" d="M16.533,24.526l6.349,3.84a1.526,1.526,0,0,0,2.279-1.652l-1.683-7.22,5.614-4.865a1.527,1.527,0,0,0-.872-2.677l-7.389-.627L17.941,4.5a1.53,1.53,0,0,0-2.815,0l-2.891,6.807-7.389.627a1.527,1.527,0,0,0-.872,2.677l5.614,4.865L7.905,26.7a1.526,1.526,0,0,0,2.279,1.652Z" transform="translate(-3.443 -3.573)" fill="#785631"/>
  </g>
</svg>
