<svg xmlns="http://www.w3.org/2000/svg" width="26" height="26" viewBox="0 0 26 26">
  <g id="inventory_black_48dp" transform="translate(0.346 0.346)">
    <g id="Grupo_84" data-name="Grupo 84" transform="translate(-0.06 -0.06)">
      <rect id="Retângulo_379" data-name="Retângulo 379" width="26" height="26" transform="translate(-0.286 -0.286)" fill="none"/>
    </g>
    <g id="Grupo_86" data-name="Grupo 86" transform="translate(3.178 1.072)">
      <g id="Grupo_85" data-name="Grupo 85">
        <path id="Caminho_34" data-name="Caminho 34" d="M5.106,5.212H7.212V6.265A2.112,2.112,0,0,0,9.318,8.371h6.318a2.112,2.112,0,0,0,2.106-2.106V5.212h2.106v5.265h2.106V5.212a2.112,2.112,0,0,0-2.106-2.106h-4.4a3.146,3.146,0,0,0-5.939,0h-4.4A2.112,2.112,0,0,0,3,5.212V19.953a2.112,2.112,0,0,0,2.106,2.106h6.318V19.953H5.106Zm7.371-2.106a1.053,1.053,0,1,1-1.053,1.053A1.056,1.056,0,0,1,12.477,3.106Z" transform="translate(-3 -1)" fill="#785631"/>
        <path id="Caminho_35" data-name="Caminho 35" d="M22.3,12.266a1.125,1.125,0,0,0-1.579,0l-4.991,5L13.346,14.9a1.125,1.125,0,0,0-1.579,0h0a1.125,1.125,0,0,0,0,1.579l3.212,3.2a1.049,1.049,0,0,0,1.485,0l5.823-5.833A1.115,1.115,0,0,0,22.3,12.266Z" transform="translate(-2.553 -0.421)" fill="#785631"/>
      </g>
    </g>
  </g>
</svg>
