<svg xmlns="http://www.w3.org/2000/svg" width="24" height="20.437" viewBox="0 0 24 20.437">
  <g id="linkedin" transform="translate(0 -1.782)">
    <path id="Path_2525" d="M23,21.584h.227l-.435-.658h0a.372.372,0,0,0,.409-.376.209.209,0,0,0,0-.025c0-.282-.17-.417-.519-.417h-.564v1.476h.212v-.643h.261Zm-.425-.81h-.246v-.5h.312c.161,0,.345.026.345.237,0,.242-.186.262-.412.262" fill="#fff"/>
    <path id="Path_2520" d="M17.291,19.073H14.284V14.364c0-1.123-.02-2.568-1.564-2.568-1.566,0-1.806,1.223-1.806,2.487v4.79H7.908V9.389H10.8v1.323h.04a3.165,3.165,0,0,1,2.848-1.564c3.048,0,3.609,2.005,3.609,4.612ZM4.515,8.065A1.745,1.745,0,1,1,6.26,6.32,1.745,1.745,0,0,1,4.515,8.065h0m1.5,11.008H3.008V9.389h3.01ZM18.79,1.783H1.5A1.481,1.481,0,0,0,0,3.246V20.61a1.481,1.481,0,0,0,1.5,1.464H18.79a1.485,1.485,0,0,0,1.5-1.464V3.245a1.484,1.484,0,0,0-1.5-1.463" fill="#fff"/>
    <path id="Path_2526" d="M22.6,19.451a1.384,1.384,0,1,0,.027,0H22.6m.032,2.608a1.24,1.24,0,0,1-1.265-1.192,1.213,1.213,0,0,1,2.426-.04v.02a1.187,1.187,0,0,1-1.161,1.212H22.6" fill="#fff"/>
  </g>
</svg>
