<svg width="48" height="48" viewBox="0 0 48 48" fill="none" xmlns="http://www.w3.org/2000/svg">
<circle opacity="0.15" cx="24" cy="24" r="24" fill="#233325"/>
<path d="M13.5513 28.987C12.5885 28.987 11.7312 28.7496 10.9663 28.2682C10.2014 27.7868 9.60126 27.1405 9.15944 26.3162C8.71761 25.4919 8.5 24.5621 8.5 23.5268C8.5 22.4915 8.7374 21.5551 9.21879 20.7242C9.70018 19.8933 10.3464 19.2405 11.1707 18.7657C11.995 18.2843 12.9182 18.0469 13.9404 18.0469C14.9625 18.0469 15.8857 18.2843 16.7034 18.7657C17.5211 19.2471 18.1674 19.8999 18.6422 20.7242C19.1235 21.5551 19.3609 22.4849 19.3609 23.5268H18.5894C18.5894 24.5621 18.3718 25.4985 17.93 26.3162C17.4881 27.1405 16.8881 27.7868 16.1231 28.2682C15.3582 28.7496 14.5009 28.987 13.5381 28.987H13.5513ZM13.947 27.2131C14.6196 27.2131 15.2131 27.0548 15.7406 26.7317C16.2682 26.4086 16.677 25.9667 16.9804 25.4128C17.2837 24.8523 17.4354 24.2258 17.4354 23.5268C17.4354 22.8278 17.2837 22.1816 16.9804 21.621C16.677 21.0605 16.2616 20.6253 15.7406 20.3022C15.2131 19.979 14.6196 19.8208 13.947 19.8208C13.2743 19.8208 12.694 19.979 12.1599 20.3022C11.6257 20.6253 11.2037 21.0671 10.9004 21.621C10.5904 22.1816 10.4387 22.8146 10.4387 23.5268C10.4387 24.239 10.5904 24.8523 10.9004 25.4128C11.2103 25.9733 11.6323 26.4151 12.1599 26.7317C12.694 27.0548 13.2875 27.2131 13.947 27.2131ZM18.3652 28.9276C18.075 28.9276 17.8376 28.8353 17.6464 28.644C17.4552 28.4528 17.3628 28.2154 17.3628 27.9253V24.9116L17.7387 22.8212L19.3741 23.5334V27.9319C19.3741 28.222 19.2818 28.4594 19.0906 28.6506C18.8993 28.8419 18.6619 28.9342 18.3718 28.9342L18.3652 28.9276Z" fill="#233325"/>
<path d="M21.9721 28.9071C21.6555 28.9071 21.4115 28.828 21.2401 28.6631C21.0686 28.4983 20.9829 28.2543 20.9829 27.9245V19.1144C20.9829 18.7979 21.0686 18.5539 21.2401 18.3825C21.4115 18.211 21.6555 18.1253 21.9721 18.1253C22.2886 18.1253 22.5458 18.2044 22.7106 18.3693C22.8755 18.5341 22.9546 18.7781 22.9546 19.1079V27.918C22.9546 28.2345 22.8755 28.4785 22.7106 28.6499C22.5458 28.8214 22.3018 28.9071 21.9721 28.9071ZM21.9523 22.1611C21.9523 21.3697 22.1435 20.6641 22.5326 20.0443C22.9217 19.4178 23.4426 18.9232 24.1021 18.5539C24.7615 18.1846 25.4803 18 26.2716 18C27.0629 18 27.6498 18.1253 28.0389 18.3825C28.428 18.6397 28.573 18.943 28.4807 19.2991C28.4412 19.4837 28.3686 19.6222 28.2565 19.7211C28.1444 19.82 28.0191 19.8794 27.874 19.9058C27.729 19.9322 27.5707 19.9256 27.3992 19.886C26.5552 19.7145 25.8034 19.7014 25.1308 19.8464C24.4582 19.9915 23.9306 20.2619 23.5415 20.6575C23.1525 21.0532 22.9612 21.5544 22.9612 22.1545H21.9589L21.9523 22.1611Z" fill="#233325"/>
<path d="M38.5175 33.5251C38.2142 33.5251 37.9702 33.4328 37.779 33.2415C37.5877 33.0503 37.4954 32.8129 37.4954 32.5228V27.2011C37.047 27.755 36.4931 28.1903 35.8402 28.5134C35.1808 28.8365 34.4686 28.9948 33.6905 28.9948C32.7277 28.9948 31.8704 28.7574 31.1055 28.276C30.3405 27.7946 29.7404 27.1483 29.2986 26.324C28.8568 25.4997 28.6392 24.5699 28.6392 23.5346C28.6392 22.4993 28.8766 21.5629 29.3579 20.732C29.8393 19.9011 30.4856 19.2483 31.3099 18.7735C32.1342 18.2921 33.0574 18.0547 34.0795 18.0547C35.1017 18.0547 36.0249 18.2921 36.8426 18.7735C37.6603 19.2549 38.3065 19.9077 38.7813 20.732C39.2627 21.5629 39.5001 22.4927 39.5001 23.5346V32.5228C39.5001 32.8129 39.4078 33.0503 39.2231 33.2415C39.0385 33.4328 38.8011 33.5251 38.511 33.5251H38.5175ZM34.0795 27.2143C34.7522 27.2143 35.3456 27.056 35.8732 26.7329C36.4007 26.4098 36.8096 25.9679 37.1129 25.414C37.4163 24.8535 37.568 24.227 37.568 23.528C37.568 22.829 37.4163 22.1828 37.1129 21.6222C36.8096 21.0617 36.3942 20.6265 35.8732 20.3034C35.3456 19.9802 34.7522 19.822 34.0795 19.822C33.4069 19.822 32.8266 19.9802 32.2924 20.3034C31.7583 20.6265 31.3363 21.0683 31.0329 21.6222C30.723 22.1828 30.5713 22.8158 30.5713 23.528C30.5713 24.2402 30.723 24.8535 31.0329 25.414C31.3429 25.9745 31.7649 26.4164 32.2924 26.7329C32.8266 27.056 33.4201 27.2143 34.0795 27.2143Z" fill="#233325"/>
</svg>
